<?xml version="1.0" encoding="utf-8"?><!DOCTYPE svg PUBLIC "-//W3C//DTD SVG 1.1//EN" "http://www.w3.org/Graphics/SVG/1.1/DTD/svg11.dtd"><svg version="1.1" baseProfile="full" xmlns="http://www.w3.org/2000/svg" xmlns:xlink="http://www.w3.org/1999/xlink" xmlns:ev="http://www.w3.org/2001/xml-events"   height="60px"   width="60px" ><path stroke-linecap="butt" stroke-linejoin="miter" opacity="0.502" fill="rgb( 0, 0, 0 )" d="M30,1 C46.016,1 59,13.984 59,30 C59,46.016 46.016,59 30,59 C13.984,59 1,46.016 1,30 C1,13.984 13.984,1 30,1 Z "/><path stroke-linecap="butt" stroke-linejoin="miter" fill="rgb( 255, 255, 255 )" d="M30,60 C13.431,60 0,46.569 0,30 C0,13.431 13.431,0 30,0 C46.569,0 60,13.431 60,30 C60,46.569 46.569,60 30,60 ZM30,3 C15.088,3 3,15.088 3,30 C3,44.912 15.088,57 30,57 C44.912,57 57,44.912 57,30 C57,15.088 44.912,3 30,3 Z "/><path stroke-linecap="butt" stroke-linejoin="miter" fill="rgb( 255, 255, 255 )" d="M31.088,10 C31.37,12.001 31.41,14.524 33.506,17.047 C35.117,18.969 36.931,20.69 38.18,22.252 C39.832,24.294 41,26.857 41,29.46 C41,33.624 38.986,37.747 37.615,40.03 C37.615,40.03 36.971,40.03 36.971,40.03 C37.938,37.868 39.872,34.304 39.71,30.501 C39.63,28.378 38.824,26.096 37.455,24.415 C35.923,22.452 33.344,20.891 31.088,20.731 C31.088,20.731 31.088,43.433 31.088,43.433 C31.088,45.235 30,46.877 28.429,48.078 C26.898,49.279 24.883,50 23.11,50 C21.982,50 20.934,49.64 20.209,49.039 C19.443,48.438 19,47.558 19,46.517 C19,44.875 20.128,43.233 21.659,42.032 C23.191,40.791 25.124,39.99 26.736,39.99 C28.147,39.99 29.355,40.19 30.081,40.871 C30.081,40.871 30.081,10 30.081,10 C30.081,10 31.088,10 31.088,10 Z "/></svg>