<svg xmlns="http://www.w3.org/2000/svg" xmlns:xlink="http://www.w3.org/1999/xlink" width="423" height="341" version="1.1" viewBox="0 0 423 341"><title>Group 4</title><desc>Created with Sketch.</desc><g id="Ant-Design-Pro-3.0" fill="none" fill-rule="evenodd" stroke="none" stroke-width="1"><g id="404" transform="translate(-484.000000, -221.000000)"><g id="Group-4" transform="translate(464.000000, 222.000000)"><g id="Group-5" stroke="#A3B1BF" stroke-dasharray="12.15" stroke-linejoin="round" stroke-width="1.62" opacity=".6" transform="translate(75.417348, 0.163879)"><path id="Stroke-1" d="M169.575185,288.890375 C103.647066,288.890375 50.2010204,235.455806 50.2010204,169.540425 C50.2010204,103.625045 103.647066,50.1904762 169.575185,50.1904762 C235.50394,50.1904762 288.94935,103.625045 288.94935,169.540425 C288.94935,235.455806 235.50394,288.890375 169.575185,288.890375 Z"/><path id="Stroke-3" d="M169.405699,338.555288 C76.0274364,338.555288 0.329411882,262.872619 0.329411882,169.513299 C0.329411882,76.1539786 76.0274364,0.471309613 169.405699,0.471309613 C262.783961,0.471309613 338.481985,76.1539786 338.481985,169.513299 C338.481985,262.872619 262.783961,338.555288 169.405699,338.555288 Z"/></g><polygon id="Fill-6" fill="#F5F5F5" points="97.711 198.803 116.118 190.231 107.545 208.634" transform="translate(106.914750, 199.432805) rotate(22.000000) translate(-106.914750, -199.432805)"/><polygon id="Stroke-7" stroke="#A3B1BF" stroke-linejoin="round" stroke-width="1.62" points="97.711 198.803 116.118 190.231 107.545 208.634" transform="translate(106.914750, 199.432805) rotate(22.000000) translate(-106.914750, -199.432805)"/><polygon id="Fill-8" points="38.854 215.184 54.412 199.629 79.138 224.35 63.58 239.905" transform="translate(58.996118, 219.767028) rotate(22.000000) translate(-58.996118, -219.767028)"/><polygon id="Stroke-9" stroke="#A3B1BF" stroke-linejoin="round" stroke-width="1.62" points="38.854 215.184 54.412 199.629 79.138 224.35 63.58 239.905" transform="translate(58.996118, 219.767028) rotate(22.000000) translate(-58.996118, -219.767028)"/><polygon id="Fill-10" fill="#F5F5F5" points="51.464 198.658 55.303 194.82 90.988 230.497 87.149 234.335" transform="translate(71.226096, 214.577614) rotate(22.000000) translate(-71.226096, -214.577614)"/><polygon id="Stroke-11" fill="#F0F2F5" stroke="#A3B1BF" stroke-linejoin="round" stroke-width="1.62" points="51.464 198.658 55.303 194.82 90.988 230.497 87.149 234.335" transform="translate(71.226096, 214.577614) rotate(22.000000) translate(-71.226096, -214.577614)"/><polygon id="Fill-12" points="56.077 259.69 70.482 245.288 113.32 288.116 98.915 302.519" transform="translate(84.698338, 273.903349) rotate(22.000000) translate(-84.698338, -273.903349)"/><polygon id="Stroke-13" stroke="#A3B1BF" stroke-linejoin="round" stroke-width="1.62" points="56.077 259.69 70.482 245.288 113.32 288.116 98.915 302.519" transform="translate(84.698338, 273.903349) rotate(22.000000) translate(-84.698338, -273.903349)"/><polygon id="Fill-14" points="63.891 203.88 66.551 201.22 87.021 221.685 84.36 224.345" transform="translate(75.456149, 212.782520) rotate(22.000000) translate(-75.456149, -212.782520)"/><polygon id="Stroke-15" stroke="#A3B1BF" stroke-linejoin="round" stroke-width="1.62" points="63.891 203.88 66.551 201.22 87.021 221.685 84.36 224.345" transform="translate(75.456149, 212.782520) rotate(22.000000) translate(-75.456149, -212.782520)"/><polygon id="Fill-16" fill="#F5F5F5" points="74.403 205.007 80.565 198.845 81.95 200.23 75.787 206.391" transform="translate(78.176142, 202.618192) rotate(22.000000) translate(-78.176142, -202.618192)"/><polygon id="Stroke-17" stroke="#A3B1BF" stroke-linejoin="round" stroke-width="1.62" points="74.403 205.007 80.565 198.845 81.95 200.23 75.787 206.391" transform="translate(78.176142, 202.618192) rotate(22.000000) translate(-78.176142, -202.618192)"/><polygon id="Fill-18" fill="#F5F5F5" points="80.904 220.318 87.066 214.156 88.45 215.54 82.288 221.702" transform="translate(84.676979, 217.928886) rotate(22.000000) translate(-84.676979, -217.928886)"/><polygon id="Stroke-19" stroke="#A3B1BF" stroke-linejoin="round" stroke-width="1.62" points="80.904 220.318 87.066 214.156 88.45 215.54 82.288 221.702" transform="translate(84.676979, 217.928886) rotate(22.000000) translate(-84.676979, -217.928886)"/><polygon id="Fill-20" points="67.849 238.632 74.012 244.793 72.628 246.177 66.465 240.016" transform="translate(70.238421, 242.404581) rotate(22.000000) translate(-70.238421, -242.404581)"/><polygon id="Stroke-21" stroke="#A3B1BF" stroke-linejoin="round" stroke-width="1.62" points="67.849 238.632 74.012 244.793 72.628 246.177 66.465 240.016" transform="translate(70.238421, 242.404581) rotate(22.000000) translate(-70.238421, -242.404581)"/><polygon id="Fill-22" points="35.113 220.725 36.324 211.432 61.051 236.154 51.756 237.365" transform="translate(48.081755, 224.398789) rotate(22.000000) translate(-48.081755, -224.398789)"/><polygon id="Stroke-23" stroke="#A3B1BF" stroke-linejoin="round" stroke-width="1.62" points="35.113 220.725 36.324 211.432 61.051 236.154 51.756 237.365" transform="translate(48.081755, 224.398789) rotate(22.000000) translate(-48.081755, -224.398789)"/><polygon id="Fill-24" points="32.918 217.471 26.25 216.056 50.976 240.778 49.561 234.111" transform="translate(38.612968, 228.416820) rotate(22.000000) translate(-38.612968, -228.416820)"/><polygon id="Stroke-25" stroke="#A3B1BF" stroke-linejoin="round" stroke-width="1.62" points="32.918 217.471 26.25 216.056 50.976 240.778 49.561 234.111" transform="translate(38.612968, 228.416820) rotate(22.000000) translate(-38.612968, -228.416820)"/><polygon id="Fill-26" points="32.647 217.298 26.859 218.379 34.231 225.75 35.313 219.964" transform="translate(31.086342, 221.523909) rotate(22.000000) translate(-31.086342, -221.523909)"/><polygon id="Stroke-27" stroke="#A3B1BF" stroke-linejoin="round" stroke-width="1.62" points="32.647 217.298 26.859 218.379 34.231 225.75 35.313 219.964" transform="translate(31.086342, 221.523909) rotate(22.000000) translate(-31.086342, -221.523909)"/><polygon id="Fill-28" points="39.905 234.392 34.117 235.473 41.49 242.844 42.571 237.057" transform="translate(38.344372, 238.617819) rotate(22.000000) translate(-38.344372, -238.617819)"/><polygon id="Stroke-29" stroke="#A3B1BF" stroke-linejoin="round" stroke-width="1.62" points="39.905 234.392 34.117 235.473 41.49 242.844 42.571 237.057" transform="translate(38.344372, 238.617819) rotate(22.000000) translate(-38.344372, -238.617819)"/><polygon id="Fill-30" fill="#F0F2F5" points="71.442 201.708 73.294 199.857 79.264 205.825 77.412 207.677" transform="translate(75.352798, 203.766862) rotate(22.000000) translate(-75.352798, -203.766862)"/><polygon id="Stroke-31" stroke="#A3B1BF" stroke-linejoin="round" stroke-width="1.62" points="71.442 201.708 73.294 199.857 79.264 205.825 77.412 207.677" transform="translate(75.352798, 203.766862) rotate(22.000000) translate(-75.352798, -203.766862)"/><polygon id="Fill-32" fill="#F0F2F5" points="77.961 217.061 79.812 215.21 85.783 221.178 83.931 223.03" transform="translate(81.871541, 219.119730) rotate(22.000000) translate(-81.871541, -219.119730)"/><polygon id="Stroke-33" stroke="#A3B1BF" stroke-linejoin="round" stroke-width="1.62" points="77.961 217.061 79.812 215.21 85.783 221.178 83.931 223.03" transform="translate(81.871541, 219.119730) rotate(22.000000) translate(-81.871541, -219.119730)"/><polygon id="Fill-34" points="65.159 237.106 67.926 234.341 70.91 237.325 68.144 240.09" transform="translate(68.034935, 237.215417) rotate(22.000000) translate(-68.034935, -237.215417)"/><polygon id="Stroke-35" fill="#F5F5F5" stroke="#A3B1BF" stroke-linejoin="round" stroke-width="1.62" points="65.159 237.106 67.926 234.341 70.91 237.325 68.144 240.09" transform="translate(68.034935, 237.215417) rotate(22.000000) translate(-68.034935, -237.215417)"/><path id="Fill-36" fill="#F5F5F5" d="M90.2556147,213.065319 C79.2271463,202.039088 74.6433339,188.153875 78.4889079,179.512775 C79.1248602,178.084237 80.8319571,175.429786 84.5339495,179.131027 C88.2353065,182.832268 120.560237,215.150007 123.931865,218.52095 C127.303492,221.891894 125.245065,224.192545 123.817508,224.827733 C115.174655,228.675068 101.284718,224.092186 90.2556147,213.065319 Z" transform="translate(101.453924, 201.708917) rotate(22.000000) translate(-101.453924, -201.708917)"/><path id="Stroke-38" fill="#F0F2F5" stroke="#A3B1BF" stroke-linejoin="round" stroke-width="1.62" d="M90.2556147,213.065319 C79.2271463,202.039088 74.6433339,188.153875 78.4889079,179.512775 C79.1248602,178.084237 80.8319571,175.429786 84.5339495,179.131027 C88.2353065,182.832268 120.560237,215.150007 123.931865,218.52095 C127.303492,221.891894 125.245065,224.192545 123.817508,224.827733 C115.174655,228.675068 101.284718,224.092186 90.2556147,213.065319 Z" transform="translate(101.453924, 201.708917) rotate(22.000000) translate(-101.453924, -201.708917)"/><polygon id="Fill-40" fill="#F0F2F5" points="77.972 201.23 79.824 199.378 95.296 214.848 93.444 216.699" transform="translate(86.633853, 208.038961) rotate(22.000000) translate(-86.633853, -208.038961)"/><polygon id="Stroke-42" stroke="#A3B1BF" stroke-linejoin="round" stroke-width="1.62" points="77.972 201.23 79.824 199.378 95.296 214.848 93.444 216.699" transform="translate(86.633853, 208.038961) rotate(22.000000) translate(-86.633853, -208.038961)"/><path id="Fill-44" fill="#A3B1BF" d="M121.635514,196.068815 C120.517356,197.186746 118.704797,197.186746 117.586639,196.068815 C116.469116,194.950884 116.469116,193.138692 117.586639,192.020761 C118.704797,190.903465 120.517356,190.903465 121.635514,192.020761 C122.753672,193.138692 122.753672,194.950884 121.635514,196.068815" transform="translate(119.611315, 194.045026) rotate(22.000000) translate(-119.611315, -194.045026)"/><polygon id="Fill-46" fill="#A3B1BF" fill-opacity=".6" points="81.251 249.672 79.634 248.056 81.251 246.441 82.867 248.056" transform="translate(81.250567, 248.056422) rotate(22.000000) translate(-81.250567, -248.056422)"/><polygon id="Stroke-48" points="81.251 249.672 79.634 248.056 81.251 246.441 82.867 248.056" transform="translate(81.250567, 248.056422) rotate(22.000000) translate(-81.250567, -248.056422)"/><polygon id="Fill-50" fill="#A3B1BF" fill-opacity=".6" points="82.702 253.091 81.086 251.475 82.702 249.859 84.318 251.475" transform="translate(82.702196, 251.475282) rotate(22.000000) translate(-82.702196, -251.475282)"/><polygon id="Stroke-52" points="82.702 253.091 81.086 251.475 82.702 249.859 84.318 251.475" transform="translate(82.702196, 251.475282) rotate(22.000000) translate(-82.702196, -251.475282)"/><polygon id="Fill-54" fill="#A3B1BF" fill-opacity=".6" points="84.154 256.51 82.538 254.894 84.154 253.278 85.77 254.894" transform="translate(84.153791, 254.894059) rotate(22.000000) translate(-84.153791, -254.894059)"/><polygon id="Stroke-56" points="84.154 256.51 82.538 254.894 84.154 253.278 85.77 254.894" transform="translate(84.153791, 254.894059) rotate(22.000000) translate(-84.153791, -254.894059)"/><polygon id="Fill-58" fill="#A3B1BF" fill-opacity=".6" points="85.605 259.929 83.989 258.313 85.605 256.697 87.222 258.313" transform="translate(85.605385, 258.312837) rotate(22.000000) translate(-85.605385, -258.312837)"/><polygon id="Stroke-60" points="85.605 259.929 83.989 258.313 85.605 256.697 87.222 258.313" transform="translate(85.605385, 258.312837) rotate(22.000000) translate(-85.605385, -258.312837)"/><polygon id="Fill-62" fill="#A3B1BF" fill-opacity=".6" points="78.094 251.012 76.478 249.396 78.094 247.78 79.711 249.396" transform="translate(78.094482, 249.395723) rotate(22.000000) translate(-78.094482, -249.395723)"/><polygon id="Stroke-64" points="78.094 251.012 76.478 249.396 78.094 247.78 79.711 249.396" transform="translate(78.094482, 249.395723) rotate(22.000000) translate(-78.094482, -249.395723)"/><polygon id="Fill-66" fill="#A3B1BF" fill-opacity=".6" points="79.546 254.43 77.93 252.815 79.546 251.199 81.162 252.815" transform="translate(79.546052, 252.814559) rotate(22.000000) translate(-79.546052, -252.814559)"/><polygon id="Stroke-68" points="79.546 254.43 77.93 252.815 79.546 251.199 81.162 252.815" transform="translate(79.546052, 252.814559) rotate(22.000000) translate(-79.546052, -252.814559)"/><polygon id="Fill-70" fill="#A3B1BF" fill-opacity=".6" points="80.998 257.849 79.381 256.233 80.998 254.617 82.614 256.233" transform="translate(80.997705, 256.233360) rotate(22.000000) translate(-80.997705, -256.233360)"/><polygon id="Stroke-72" points="79.381 256.233 80.998 254.617 82.614 256.233 80.998 257.849" transform="translate(80.997705, 256.233360) rotate(22.000000) translate(-80.997705, -256.233360)"/><polygon id="Fill-74" fill="#A3B1BF" fill-opacity=".6" points="82.449 261.268 80.833 259.652 82.449 258.036 84.066 259.652" transform="translate(82.449276, 259.652197) rotate(22.000000) translate(-82.449276, -259.652197)"/><polygon id="Stroke-76" points="82.449 261.268 80.833 259.652 82.449 258.036 84.066 259.652" transform="translate(82.449276, 259.652197) rotate(22.000000) translate(-82.449276, -259.652197)"/><polygon id="Fill-78" fill="#A3B1BF" fill-opacity=".6" points="74.938 252.351 73.322 250.735 74.938 249.119 76.555 250.735" transform="translate(74.938373, 250.735083) rotate(22.000000) translate(-74.938373, -250.735083)"/><polygon id="Stroke-80" points="74.938 252.351 73.322 250.735 74.938 249.119 76.555 250.735" transform="translate(74.938373, 250.735083) rotate(22.000000) translate(-74.938373, -250.735083)"/><polygon id="Fill-82" fill="#A3B1BF" fill-opacity=".6" points="76.39 255.77 74.774 254.154 76.39 252.538 78.006 254.154" transform="translate(76.389967, 254.153860) rotate(22.000000) translate(-76.389967, -254.153860)"/><polygon id="Stroke-84" points="76.39 255.77 74.774 254.154 76.39 252.538 78.006 254.154" transform="translate(76.389967, 254.153860) rotate(22.000000) translate(-76.389967, -254.153860)"/><polygon id="Fill-86" fill="#A3B1BF" fill-opacity=".6" points="77.842 259.189 76.225 257.573 77.842 255.957 79.458 257.573" transform="translate(77.841620, 257.572661) rotate(22.000000) translate(-77.841620, -257.572661)"/><polygon id="Stroke-88" points="77.842 259.189 76.225 257.573 77.842 255.957 79.458 257.573" transform="translate(77.841620, 257.572661) rotate(22.000000) translate(-77.841620, -257.572661)"/><polygon id="Fill-90" fill="#A3B1BF" fill-opacity=".6" points="79.293 262.607 77.677 260.991 79.293 259.376 80.909 260.991" transform="translate(79.293190, 260.991498) rotate(22.000000) translate(-79.293190, -260.991498)"/><polygon id="Stroke-92" points="79.293 262.607 77.677 260.991 79.293 259.376 80.909 260.991" transform="translate(79.293190, 260.991498) rotate(22.000000) translate(-79.293190, -260.991498)"/><polygon id="Fill-94" fill="#A3B1BF" fill-opacity=".6" points="71.782 253.69 70.166 252.074 71.782 250.458 73.399 252.074" transform="translate(71.782287, 252.074384) rotate(22.000000) translate(-71.782287, -252.074384)"/><polygon id="Stroke-96" points="71.782 253.69 70.166 252.074 71.782 250.458 73.399 252.074" transform="translate(71.782287, 252.074384) rotate(22.000000) translate(-71.782287, -252.074384)"/><polygon id="Fill-98" fill="#A3B1BF" fill-opacity=".6" points="73.234 257.109 71.618 255.493 73.234 253.877 74.85 255.493" transform="translate(73.233882, 255.493161) rotate(22.000000) translate(-73.233882, -255.493161)"/><polygon id="Stroke-100" points="73.234 257.109 71.618 255.493 73.234 253.877 74.85 255.493" transform="translate(73.233882, 255.493161) rotate(22.000000) translate(-73.233882, -255.493161)"/><polygon id="Fill-102" fill="#A3B1BF" fill-opacity=".6" points="74.686 260.528 73.069 258.912 74.686 257.296 76.302 258.912" transform="translate(74.685535, 258.911962) rotate(22.000000) translate(-74.685535, -258.911962)"/><polygon id="Stroke-104" points="74.686 260.528 73.069 258.912 74.686 257.296 76.302 258.912" transform="translate(74.685535, 258.911962) rotate(22.000000) translate(-74.685535, -258.911962)"/><polygon id="Fill-106" fill="#A3B1BF" fill-opacity=".6" points="76.137 263.947 74.521 262.331 76.137 260.715 77.753 262.331" transform="translate(76.137105, 262.330799) rotate(22.000000) translate(-76.137105, -262.330799)"/><polygon id="Stroke-108" points="76.137 263.947 74.521 262.331 76.137 260.715 77.753 262.331" transform="translate(76.137105, 262.330799) rotate(22.000000) translate(-76.137105, -262.330799)"/><polygon id="Fill-110" fill="#A3B1BF" fill-opacity=".6" points="68.626 255.03 67.01 253.414 68.626 251.798 70.242 253.414" transform="translate(68.626202, 253.413685) rotate(22.000000) translate(-68.626202, -253.413685)"/><polygon id="Stroke-112" points="68.626 255.03 67.01 253.414 68.626 251.798 70.242 253.414" transform="translate(68.626202, 253.413685) rotate(22.000000) translate(-68.626202, -253.413685)"/><polygon id="Fill-114" fill="#A3B1BF" fill-opacity=".6" points="70.078 258.448 68.462 256.832 70.078 255.217 71.694 256.832" transform="translate(70.077796, 256.832462) rotate(22.000000) translate(-70.077796, -256.832462)"/><polygon id="Stroke-116" points="70.078 258.448 68.462 256.832 70.078 255.217 71.694 256.832" transform="translate(70.077796, 256.832462) rotate(22.000000) translate(-70.077796, -256.832462)"/><polygon id="Fill-118" fill="#A3B1BF" fill-opacity=".6" points="71.529 261.867 69.913 260.251 71.529 258.635 73.146 260.251" transform="translate(71.529426, 260.251322) rotate(22.000000) translate(-71.529426, -260.251322)"/><polygon id="Stroke-120" points="71.529 261.867 69.913 260.251 71.529 258.635 73.146 260.251" transform="translate(71.529426, 260.251322) rotate(22.000000) translate(-71.529426, -260.251322)"/><polygon id="Fill-122" fill="#A3B1BF" fill-opacity=".6" points="72.981 265.286 71.365 263.67 72.981 262.054 74.597 263.67" transform="translate(72.981020, 263.670099) rotate(22.000000) translate(-72.981020, -263.670099)"/><polygon id="Stroke-124" points="72.981 265.286 71.365 263.67 72.981 262.054 74.597 263.67" transform="translate(72.981020, 263.670099) rotate(22.000000) translate(-72.981020, -263.670099)"/><polygon id="Fill-126" fill="#A3B1BF" fill-opacity=".6" points="88.853 267.577 87.237 265.961 88.853 264.345 90.469 265.961" transform="translate(88.852907, 265.961362) rotate(22.000000) translate(-88.852907, -265.961362)"/><polygon id="Stroke-128" points="88.853 267.577 87.237 265.961 88.853 264.345 90.469 265.961" transform="translate(88.852907, 265.961362) rotate(22.000000) translate(-88.852907, -265.961362)"/><polygon id="Fill-130" fill="#A3B1BF" fill-opacity=".6" points="90.305 270.996 88.688 269.38 90.305 267.764 91.921 269.38" transform="translate(90.304501, 269.380139) rotate(22.000000) translate(-90.304501, -269.380139)"/><polygon id="Stroke-132" points="90.305 270.996 88.688 269.38 90.305 267.764 91.921 269.38" transform="translate(90.304501, 269.380139) rotate(22.000000) translate(-90.304501, -269.380139)"/><polygon id="Fill-134" fill="#A3B1BF" fill-opacity=".6" points="91.756 274.415 90.14 272.799 91.756 271.183 93.372 272.799" transform="translate(91.756130, 272.798999) rotate(22.000000) translate(-91.756130, -272.798999)"/><polygon id="Stroke-136" points="91.756 274.415 90.14 272.799 91.756 271.183 93.372 272.799" transform="translate(91.756130, 272.798999) rotate(22.000000) translate(-91.756130, -272.798999)"/><polygon id="Fill-138" fill="#A3B1BF" fill-opacity=".6" points="93.208 277.834 91.591 276.218 93.208 274.602 94.824 276.218" transform="translate(93.207724, 276.217777) rotate(22.000000) translate(-93.207724, -276.217777)"/><polygon id="Stroke-140" points="93.208 277.834 91.591 276.218 93.208 274.602 94.824 276.218" transform="translate(93.207724, 276.217777) rotate(22.000000) translate(-93.207724, -276.217777)"/><polygon id="Fill-142" fill="#A3B1BF" fill-opacity=".6" points="85.697 268.917 84.081 267.301 85.697 265.685 87.313 267.301" transform="translate(85.696821, 267.300663) rotate(22.000000) translate(-85.696821, -267.300663)"/><polygon id="Stroke-144" points="85.697 268.917 84.081 267.301 85.697 265.685 87.313 267.301" transform="translate(85.696821, 267.300663) rotate(22.000000) translate(-85.696821, -267.300663)"/><polygon id="Fill-146" fill="#A3B1BF" fill-opacity=".6" points="87.148 272.335 85.532 270.719 87.148 269.104 88.765 270.719" transform="translate(87.148416, 270.719440) rotate(22.000000) translate(-87.148416, -270.719440)"/><polygon id="Stroke-148" points="87.148 272.335 85.532 270.719 87.148 269.104 88.765 270.719" transform="translate(87.148416, 270.719440) rotate(22.000000) translate(-87.148416, -270.719440)"/><polygon id="Fill-150" fill="#A3B1BF" fill-opacity=".6" points="88.6 275.754 86.984 274.138 88.6 272.522 90.216 274.138" transform="translate(88.599986, 274.138276) rotate(22.000000) translate(-88.599986, -274.138276)"/><polygon id="Stroke-152" points="88.6 275.754 86.984 274.138 88.6 272.522 90.216 274.138" transform="translate(88.599986, 274.138276) rotate(22.000000) translate(-88.599986, -274.138276)"/><polygon id="Fill-154" fill="#A3B1BF" fill-opacity=".6" points="90.052 279.173 88.435 277.557 90.052 275.941 91.668 277.557" transform="translate(90.051639, 277.557078) rotate(22.000000) translate(-90.051639, -277.557078)"/><polygon id="Stroke-156" points="90.052 279.173 88.435 277.557 90.052 275.941 91.668 277.557" transform="translate(90.051639, 277.557078) rotate(22.000000) translate(-90.051639, -277.557078)"/><polygon id="Fill-158" fill="#A3B1BF" fill-opacity=".6" points="82.541 270.256 80.924 268.64 82.541 267.024 84.157 268.64" transform="translate(82.540736, 268.639964) rotate(22.000000) translate(-82.540736, -268.639964)"/><polygon id="Stroke-160" points="82.541 270.256 80.924 268.64 82.541 267.024 84.157 268.64" transform="translate(82.540736, 268.639964) rotate(22.000000) translate(-82.540736, -268.639964)"/><polygon id="Fill-162" fill="#A3B1BF" fill-opacity=".6" points="83.992 273.675 82.376 272.059 83.992 270.443 85.609 272.059" transform="translate(83.992306, 272.058800) rotate(22.000000) translate(-83.992306, -272.058800)"/><polygon id="Stroke-164" points="83.992 273.675 82.376 272.059 83.992 270.443 85.609 272.059" transform="translate(83.992306, 272.058800) rotate(22.000000) translate(-83.992306, -272.058800)"/><polygon id="Fill-166" fill="#A3B1BF" fill-opacity=".6" points="85.444 277.093 83.828 275.478 85.444 273.862 87.06 275.478" transform="translate(85.443901, 275.477577) rotate(22.000000) translate(-85.443901, -275.477577)"/><polygon id="Stroke-168" points="85.444 277.093 83.828 275.478 85.444 273.862 87.06 275.478" transform="translate(85.443901, 275.477577) rotate(22.000000) translate(-85.443901, -275.477577)"/><polygon id="Fill-170" fill="#A3B1BF" fill-opacity=".6" points="86.896 280.512 85.279 278.896 86.896 277.28 88.512 278.896" transform="translate(86.895554, 278.896378) rotate(22.000000) translate(-86.895554, -278.896378)"/><polygon id="Stroke-172" points="86.896 280.512 85.279 278.896 86.896 277.28 88.512 278.896" transform="translate(86.895554, 278.896378) rotate(22.000000) translate(-86.895554, -278.896378)"/><polygon id="Fill-174" fill="#A3B1BF" fill-opacity=".6" points="79.385 271.595 77.768 269.979 79.385 268.363 81.001 269.979" transform="translate(79.384651, 269.979265) rotate(22.000000) translate(-79.384651, -269.979265)"/><polygon id="Stroke-176" points="79.385 271.595 77.768 269.979 79.385 268.363 81.001 269.979" transform="translate(79.384651, 269.979265) rotate(22.000000) translate(-79.384651, -269.979265)"/><polygon id="Fill-178" fill="#A3B1BF" fill-opacity=".6" points="80.836 275.014 79.22 273.398 80.836 271.782 82.452 273.398" transform="translate(80.836221, 273.398101) rotate(22.000000) translate(-80.836221, -273.398101)"/><polygon id="Stroke-180" points="80.836 275.014 79.22 273.398 80.836 271.782 82.452 273.398" transform="translate(80.836221, 273.398101) rotate(22.000000) translate(-80.836221, -273.398101)"/><polygon id="Fill-182" fill="#A3B1BF" fill-opacity=".6" points="82.288 278.433 80.672 276.817 82.288 275.201 83.904 276.817" transform="translate(82.287815, 276.816878) rotate(22.000000) translate(-82.287815, -276.816878)"/><polygon id="Stroke-184" points="82.288 278.433 80.672 276.817 82.288 275.201 83.904 276.817" transform="translate(82.287815, 276.816878) rotate(22.000000) translate(-82.287815, -276.816878)"/><polygon id="Fill-186" fill="#A3B1BF" fill-opacity=".6" points="83.739 281.852 82.123 280.236 83.739 278.62 85.356 280.236" transform="translate(83.739445, 280.235738) rotate(22.000000) translate(-83.739445, -280.235738)"/><polygon id="Stroke-188" points="83.739 281.852 82.123 280.236 83.739 278.62 85.356 280.236" transform="translate(83.739445, 280.235738) rotate(22.000000) translate(-83.739445, -280.235738)"/><polygon id="Fill-190" fill="#A3B1BF" fill-opacity=".6" points="76.228 272.935 74.612 271.319 76.228 269.703 77.845 271.319" transform="translate(76.228483, 271.318601) rotate(22.000000) translate(-76.228483, -271.318601)"/><polygon id="Stroke-192" points="76.228 272.935 74.612 271.319 76.228 269.703 77.845 271.319" transform="translate(76.228483, 271.318601) rotate(22.000000) translate(-76.228483, -271.318601)"/><polygon id="Fill-194" fill="#A3B1BF" fill-opacity=".6" points="77.68 276.353 76.064 274.737 77.68 273.121 79.296 274.737" transform="translate(77.680136, 274.737402) rotate(22.000000) translate(-77.680136, -274.737402)"/><polygon id="Stroke-196" points="77.68 276.353 76.064 274.737 77.68 273.121 79.296 274.737" transform="translate(77.680136, 274.737402) rotate(22.000000) translate(-77.680136, -274.737402)"/><polygon id="Fill-198" fill="#A3B1BF" fill-opacity=".6" points="79.132 279.772 77.515 278.156 79.132 276.54 80.748 278.156" transform="translate(79.131730, 278.156179) rotate(22.000000) translate(-79.131730, -278.156179)"/><polygon id="Stroke-200" points="79.132 279.772 77.515 278.156 79.132 276.54 80.748 278.156" transform="translate(79.131730, 278.156179) rotate(22.000000) translate(-79.131730, -278.156179)"/><polygon id="Fill-202" fill="#A3B1BF" fill-opacity=".6" points="80.583 283.191 78.967 281.575 80.583 279.959 82.2 281.575" transform="translate(80.583359, 281.575039) rotate(22.000000) translate(-80.583359, -281.575039)"/><polygon id="Stroke-204" points="80.583 283.191 78.967 281.575 80.583 279.959 82.2 281.575" transform="translate(80.583359, 281.575039) rotate(22.000000) translate(-80.583359, -281.575039)"/><polygon id="Fill-206" fill="#A3B1BF" fill-opacity=".6" points="96.455 285.482 94.839 283.866 96.455 282.25 98.071 283.866" transform="translate(96.455246, 283.866302) rotate(22.000000) translate(-96.455246, -283.866302)"/><polygon id="Stroke-208" points="96.455 285.482 94.839 283.866 96.455 282.25 98.071 283.866" transform="translate(96.455246, 283.866302) rotate(22.000000) translate(-96.455246, -283.866302)"/><polygon id="Fill-210" fill="#A3B1BF" fill-opacity=".6" points="97.907 288.901 96.291 287.285 97.907 285.669 99.523 287.285" transform="translate(97.906840, 287.285079) rotate(22.000000) translate(-97.906840, -287.285079)"/><polygon id="Stroke-212" points="97.907 288.901 96.291 287.285 97.907 285.669 99.523 287.285" transform="translate(97.906840, 287.285079) rotate(22.000000) translate(-97.906840, -287.285079)"/><polygon id="Fill-214" fill="#A3B1BF" fill-opacity=".6" points="99.358 292.32 97.742 290.704 99.358 289.088 100.975 290.704" transform="translate(99.358435, 290.703856) rotate(22.000000) translate(-99.358435, -290.703856)"/><polygon id="Stroke-216" points="99.358 292.32 97.742 290.704 99.358 289.088 100.975 290.704" transform="translate(99.358435, 290.703856) rotate(22.000000) translate(-99.358435, -290.703856)"/><polygon id="Fill-218" fill="#A3B1BF" fill-opacity=".6" points="100.81 295.739 99.194 294.123 100.81 292.507 102.426 294.123" transform="translate(100.810064, 294.122716) rotate(22.000000) translate(-100.810064, -294.122716)"/><polygon id="Stroke-220" points="100.81 295.739 99.194 294.123 100.81 292.507 102.426 294.123" transform="translate(100.810064, 294.122716) rotate(22.000000) translate(-100.810064, -294.122716)"/><polygon id="Fill-222" fill="#A3B1BF" fill-opacity=".6" points="93.299 286.821 91.683 285.206 93.299 283.59 94.915 285.206" transform="translate(93.299102, 285.205579) rotate(22.000000) translate(-93.299102, -285.205579)"/><polygon id="Stroke-224" points="93.299 286.821 91.683 285.206 93.299 283.59 94.915 285.206" transform="translate(93.299102, 285.205579) rotate(22.000000) translate(-93.299102, -285.205579)"/><polygon id="Fill-226" fill="#A3B1BF" fill-opacity=".6" points="94.751 290.24 93.135 288.624 94.751 287.008 96.367 288.624" transform="translate(94.750755, 288.624380) rotate(22.000000) translate(-94.750755, -288.624380)"/><polygon id="Stroke-228" points="94.751 290.24 93.135 288.624 94.751 287.008 96.367 288.624" transform="translate(94.750755, 288.624380) rotate(22.000000) translate(-94.750755, -288.624380)"/><polygon id="Fill-230" fill="#A3B1BF" fill-opacity=".6" points="96.202 293.659 94.586 292.043 96.202 290.427 97.819 292.043" transform="translate(96.202326, 292.043216) rotate(22.000000) translate(-96.202326, -292.043216)"/><polygon id="Stroke-232" points="96.202 293.659 94.586 292.043 96.202 290.427 97.819 292.043" transform="translate(96.202326, 292.043216) rotate(22.000000) translate(-96.202326, -292.043216)"/><polygon id="Fill-234" fill="#A3B1BF" fill-opacity=".6" points="97.654 297.078 96.038 295.462 97.654 293.846 99.27 295.462" transform="translate(97.653979, 295.462017) rotate(22.000000) translate(-97.653979, -295.462017)"/><polygon id="Stroke-236" points="97.654 297.078 96.038 295.462 97.654 293.846 99.27 295.462" transform="translate(97.653979, 295.462017) rotate(22.000000) translate(-97.653979, -295.462017)"/><polygon id="Fill-238" fill="#A3B1BF" fill-opacity=".6" points="90.143 288.161 88.527 286.545 90.143 284.929 91.759 286.545" transform="translate(90.143017, 286.544880) rotate(22.000000) translate(-90.143017, -286.544880)"/><polygon id="Stroke-240" points="90.143 288.161 88.527 286.545 90.143 284.929 91.759 286.545" transform="translate(90.143017, 286.544880) rotate(22.000000) translate(-90.143017, -286.544880)"/><polygon id="Fill-242" fill="#A3B1BF" fill-opacity=".6" points="91.595 291.58 89.978 289.964 91.595 288.348 93.211 289.964" transform="translate(91.594670, 289.963681) rotate(22.000000) translate(-91.594670, -289.963681)"/><polygon id="Stroke-244" points="91.595 291.58 89.978 289.964 91.595 288.348 93.211 289.964" transform="translate(91.594670, 289.963681) rotate(22.000000) translate(-91.594670, -289.963681)"/><polygon id="Fill-246" fill="#A3B1BF" fill-opacity=".6" points="93.046 294.998 91.43 293.383 93.046 291.767 94.662 293.383" transform="translate(93.046240, 293.382517) rotate(22.000000) translate(-93.046240, -293.382517)"/><polygon id="Stroke-248" points="93.046 294.998 91.43 293.383 93.046 291.767 94.662 293.383" transform="translate(93.046240, 293.382517) rotate(22.000000) translate(-93.046240, -293.382517)"/><polygon id="Fill-250" fill="#A3B1BF" fill-opacity=".6" points="94.498 298.417 92.882 296.801 94.498 295.185 96.114 296.801" transform="translate(94.497893, 296.801318) rotate(22.000000) translate(-94.497893, -296.801318)"/><polygon id="Stroke-252" points="94.498 298.417 92.882 296.801 94.498 295.185 96.114 296.801" transform="translate(94.497893, 296.801318) rotate(22.000000) translate(-94.497893, -296.801318)"/><polygon id="Fill-254" fill="#A3B1BF" fill-opacity=".6" points="86.987 289.5 85.371 287.884 86.987 286.268 88.603 287.884" transform="translate(86.986931, 287.884181) rotate(22.000000) translate(-86.986931, -287.884181)"/><polygon id="Stroke-256" points="86.987 289.5 85.371 287.884 86.987 286.268 88.603 287.884" transform="translate(86.986931, 287.884181) rotate(22.000000) translate(-86.986931, -287.884181)"/><polygon id="Fill-258" fill="#A3B1BF" fill-opacity=".6" points="88.439 292.919 86.822 291.303 88.439 289.687 90.055 291.303" transform="translate(88.438585, 291.302982) rotate(22.000000) translate(-88.438585, -291.302982)"/><polygon id="Stroke-260" points="88.439 292.919 86.822 291.303 88.439 289.687 90.055 291.303" transform="translate(88.438585, 291.302982) rotate(22.000000) translate(-88.438585, -291.302982)"/><polygon id="Fill-262" fill="#A3B1BF" fill-opacity=".6" points="89.89 296.338 88.274 294.722 89.89 293.106 91.506 294.722" transform="translate(89.890155, 294.721818) rotate(22.000000) translate(-89.890155, -294.721818)"/><polygon id="Stroke-264" points="89.89 296.338 88.274 294.722 89.89 293.106 91.506 294.722" transform="translate(89.890155, 294.721818) rotate(22.000000) translate(-89.890155, -294.721818)"/><polygon id="Fill-266" fill="#A3B1BF" fill-opacity=".6" points="91.342 299.757 89.726 298.141 91.342 296.525 92.958 298.141" transform="translate(91.341749, 298.140595) rotate(22.000000) translate(-91.341749, -298.140595)"/><polygon id="Stroke-268" points="91.342 299.757 89.726 298.141 91.342 296.525 92.958 298.141" transform="translate(91.341749, 298.140595) rotate(22.000000) translate(-91.341749, -298.140595)"/><polygon id="Fill-270" fill="#A3B1BF" fill-opacity=".6" points="83.831 290.839 82.215 289.223 83.831 287.608 85.447 289.223" transform="translate(83.830846, 289.223482) rotate(22.000000) translate(-83.830846, -289.223482)"/><polygon id="Stroke-272" points="82.215 289.223 83.831 287.608 85.447 289.223 83.831 290.839" transform="translate(83.830846, 289.223482) rotate(22.000000) translate(-83.830846, -289.223482)"/><polygon id="Fill-274" fill="#A3B1BF" fill-opacity=".6" points="85.282 294.258 83.666 292.642 85.282 291.026 86.899 292.642" transform="translate(85.282417, 292.642318) rotate(22.000000) translate(-85.282417, -292.642318)"/><polygon id="Stroke-276" points="85.282 294.258 83.666 292.642 85.282 291.026 86.899 292.642" transform="translate(85.282417, 292.642318) rotate(22.000000) translate(-85.282417, -292.642318)"/><polygon id="Fill-278" fill="#A3B1BF" fill-opacity=".6" points="86.734 297.677 85.118 296.061 86.734 294.445 88.35 296.061" transform="translate(86.734070, 296.061119) rotate(22.000000) translate(-86.734070, -296.061119)"/><polygon id="Stroke-280" points="86.734 297.677 85.118 296.061 86.734 294.445 88.35 296.061" transform="translate(86.734070, 296.061119) rotate(22.000000) translate(-86.734070, -296.061119)"/><polygon id="Fill-282" fill="#A3B1BF" fill-opacity=".6" points="88.186 301.096 86.569 299.48 88.186 297.864 89.802 299.48" transform="translate(88.185664, 299.479896) rotate(22.000000) translate(-88.185664, -299.479896)"/><polygon id="Stroke-284" points="88.186 301.096 86.569 299.48 88.186 297.864 89.802 299.48" transform="translate(88.185664, 299.479896) rotate(22.000000) translate(-88.185664, -299.479896)"/><polygon id="Fill-286" points="51.996 192.018 66.401 177.616 23.564 134.787 9.159 149.19" transform="translate(37.779995, 163.402514) rotate(22.000000) translate(-37.779995, -163.402514)"/><polygon id="Fill-290" points="54.174 198.071 48.011 191.909 46.627 193.293 52.789 199.455" transform="translate(50.400318, 195.682118) rotate(22.000000) translate(-50.400318, -195.682118)"/><polygon id="Stroke-292" stroke="#A3B1BF" stroke-linejoin="round" stroke-width="1.62" points="54.174 198.071 48.011 191.909 46.627 193.293 52.789 199.455" transform="translate(50.400318, 195.682118) rotate(22.000000) translate(-50.400318, -195.682118)"/><polygon id="Fill-294" fill="#A3B1BF" fill-opacity=".8" points="52.713 203.746 55.479 200.981 52.494 197.997 49.728 200.762" transform="translate(52.603532, 200.871447) rotate(22.000000) translate(-52.603532, -200.871447)"/><polygon id="Stroke-296" fill="#FFF" stroke="#A3B1BF" stroke-linejoin="round" stroke-width="1.62" points="52.713 203.746 55.479 200.981 52.494 197.997 49.728 200.762" transform="translate(52.603532, 200.871447) rotate(22.000000) translate(-52.603532, -200.871447)"/><polygon id="Fill-298" fill="#A3B1BF" fill-opacity=".8" points="52.367 183.837 53.983 185.453 55.6 183.837 53.983 182.221" transform="translate(53.983257, 183.836778) rotate(22.000000) translate(-53.983257, -183.836778)"/><polygon id="Stroke-300" points="52.367 183.837 53.983 185.453 55.6 183.837 53.983 182.221" transform="translate(53.983257, 183.836778) rotate(22.000000) translate(-53.983257, -183.836778)"/><polygon id="Fill-302" fill="#A3B1BF" fill-opacity=".8" points="50.915 180.418 52.532 182.034 54.148 180.418 52.532 178.802" transform="translate(52.531663, 180.418001) rotate(22.000000) translate(-52.531663, -180.418001)"/><polygon id="Stroke-304" points="50.915 180.418 52.532 182.034 54.148 180.418 52.532 178.802" transform="translate(52.531663, 180.418001) rotate(22.000000) translate(-52.531663, -180.418001)"/><polygon id="Fill-306" fill="#A3B1BF" fill-opacity=".8" points="49.464 176.999 51.08 178.615 52.696 176.999 51.08 175.383" transform="translate(51.080034, 176.999141) rotate(22.000000) translate(-51.080034, -176.999141)"/><polygon id="Stroke-308" points="49.464 176.999 51.08 178.615 52.696 176.999 51.08 175.383" transform="translate(51.080034, 176.999141) rotate(22.000000) translate(-51.080034, -176.999141)"/><polygon id="Fill-310" fill="#A3B1BF" fill-opacity=".8" points="48.012 173.58 49.628 175.196 51.245 173.58 49.628 171.964" transform="translate(49.628440, 173.580364) rotate(22.000000) translate(-49.628440, -173.580364)"/><polygon id="Stroke-312" points="48.012 173.58 49.628 175.196 51.245 173.58 49.628 171.964" transform="translate(49.628440, 173.580364) rotate(22.000000) translate(-49.628440, -173.580364)"/><polygon id="Fill-314" fill="#A3B1BF" fill-opacity=".8" points="49.211 185.176 50.827 186.792 52.443 185.176 50.827 183.56" transform="translate(50.827172, 185.176079) rotate(22.000000) translate(-50.827172, -185.176079)"/><polygon id="Stroke-316" points="49.211 185.176 50.827 186.792 52.443 185.176 50.827 183.56" transform="translate(50.827172, 185.176079) rotate(22.000000) translate(-50.827172, -185.176079)"/><polygon id="Fill-318" fill="#A3B1BF" fill-opacity=".8" points="47.759 181.757 49.376 183.373 50.992 181.757 49.376 180.141" transform="translate(49.375578, 181.757302) rotate(22.000000) translate(-49.375578, -181.757302)"/><polygon id="Stroke-320" points="47.759 181.757 49.376 183.373 50.992 181.757 49.376 180.141" transform="translate(49.375578, 181.757302) rotate(22.000000) translate(-49.375578, -181.757302)"/><polygon id="Fill-322" fill="#A3B1BF" fill-opacity=".8" points="46.308 178.338 47.924 179.954 49.54 178.338 47.924 176.723" transform="translate(47.923949, 178.338442) rotate(22.000000) translate(-47.923949, -178.338442)"/><polygon id="Stroke-324" points="46.308 178.338 47.924 179.954 49.54 178.338 47.924 176.723" transform="translate(47.923949, 178.338442) rotate(22.000000) translate(-47.923949, -178.338442)"/><polygon id="Fill-326" fill="#A3B1BF" fill-opacity=".8" points="44.856 174.92 46.472 176.536 48.089 174.92 46.472 173.304" transform="translate(46.472354, 174.919665) rotate(22.000000) translate(-46.472354, -174.919665)"/><polygon id="Stroke-328" points="44.856 174.92 46.472 176.536 48.089 174.92 46.472 173.304" transform="translate(46.472354, 174.919665) rotate(22.000000) translate(-46.472354, -174.919665)"/><polygon id="Fill-330" fill="#A3B1BF" fill-opacity=".8" points="46.055 186.515 47.671 188.131 49.287 186.515 47.671 184.899" transform="translate(47.671087, 186.515380) rotate(22.000000) translate(-47.671087, -186.515380)"/><polygon id="Stroke-332" points="46.055 186.515 47.671 188.131 49.287 186.515 47.671 184.899" transform="translate(47.671087, 186.515380) rotate(22.000000) translate(-47.671087, -186.515380)"/><polygon id="Fill-334" fill="#A3B1BF" fill-opacity=".8" points="44.603 183.097 46.219 184.713 47.836 183.097 46.219 181.481" transform="translate(46.219493, 183.096603) rotate(22.000000) translate(-46.219493, -183.096603)"/><polygon id="Stroke-336" points="44.603 183.097 46.219 184.713 47.836 183.097 46.219 181.481" transform="translate(46.219493, 183.096603) rotate(22.000000) translate(-46.219493, -183.096603)"/><polygon id="Fill-338" fill="#A3B1BF" fill-opacity=".8" points="43.152 179.678 44.768 181.294 46.384 179.678 44.768 178.062" transform="translate(44.767839, 179.677802) rotate(22.000000) translate(-44.767839, -179.677802)"/><polygon id="Stroke-340" points="43.152 179.678 44.768 181.294 46.384 179.678 44.768 178.062" transform="translate(44.767839, 179.677802) rotate(22.000000) translate(-44.767839, -179.677802)"/><polygon id="Fill-342" fill="#A3B1BF" fill-opacity=".8" points="41.7 176.259 43.316 177.875 44.933 176.259 43.316 174.643" transform="translate(43.316269, 176.258965) rotate(22.000000) translate(-43.316269, -176.258965)"/><polygon id="Stroke-344" points="41.7 176.259 43.316 177.875 44.933 176.259 43.316 174.643" transform="translate(43.316269, 176.258965) rotate(22.000000) translate(-43.316269, -176.258965)"/><polygon id="Fill-346" fill="#A3B1BF" fill-opacity=".8" points="42.899 187.855 44.515 189.471 46.131 187.855 44.515 186.239" transform="translate(44.514978, 187.854740) rotate(22.000000) translate(-44.514978, -187.854740)"/><polygon id="Stroke-348" points="42.899 187.855 44.515 189.471 46.131 187.855 44.515 186.239" transform="translate(44.514978, 187.854740) rotate(22.000000) translate(-44.514978, -187.854740)"/><polygon id="Fill-350" fill="#A3B1BF" fill-opacity=".8" points="41.447 184.436 43.063 186.052 44.68 184.436 43.063 182.82" transform="translate(43.063348, 184.435880) rotate(22.000000) translate(-43.063348, -184.435880)"/><polygon id="Stroke-352" points="41.447 184.436 43.063 186.052 44.68 184.436 43.063 182.82" transform="translate(43.063348, 184.435880) rotate(22.000000) translate(-43.063348, -184.435880)"/><polygon id="Fill-354" fill="#A3B1BF" fill-opacity=".8" points="39.996 181.017 41.612 182.633 43.228 181.017 41.612 179.401" transform="translate(41.611754, 181.017103) rotate(22.000000) translate(-41.611754, -181.017103)"/><polygon id="Stroke-356" points="39.996 181.017 41.612 182.633 43.228 181.017 41.612 179.401" transform="translate(41.611754, 181.017103) rotate(22.000000) translate(-41.611754, -181.017103)"/><polygon id="Fill-358" fill="#A3B1BF" fill-opacity=".8" points="38.544 177.598 40.16 179.214 41.776 177.598 40.16 175.982" transform="translate(40.160184, 177.598266) rotate(22.000000) translate(-40.160184, -177.598266)"/><polygon id="Stroke-360" points="38.544 177.598 40.16 179.214 41.776 177.598 40.16 175.982" transform="translate(40.160184, 177.598266) rotate(22.000000) translate(-40.160184, -177.598266)"/><polygon id="Fill-362" fill="#A3B1BF" fill-opacity=".8" points="39.743 189.194 41.359 190.81 42.975 189.194 41.359 187.578" transform="translate(41.358892, 189.194041) rotate(22.000000) translate(-41.358892, -189.194041)"/><polygon id="Stroke-364" points="39.743 189.194 41.359 190.81 42.975 189.194 41.359 187.578" transform="translate(41.358892, 189.194041) rotate(22.000000) translate(-41.358892, -189.194041)"/><polygon id="Fill-366" fill="#A3B1BF" fill-opacity=".8" points="38.291 185.775 39.907 187.391 41.524 185.775 39.907 184.159" transform="translate(39.907263, 185.775181) rotate(22.000000) translate(-39.907263, -185.775181)"/><polygon id="Stroke-368" points="38.291 185.775 39.907 187.391 41.524 185.775 39.907 184.159" transform="translate(39.907263, 185.775181) rotate(22.000000) translate(-39.907263, -185.775181)"/><polygon id="Fill-370" fill="#A3B1BF" fill-opacity=".8" points="36.839 182.356 38.456 183.972 40.072 182.356 38.456 180.74" transform="translate(38.455669, 182.356404) rotate(22.000000) translate(-38.455669, -182.356404)"/><polygon id="Stroke-372" points="36.839 182.356 38.456 183.972 40.072 182.356 38.456 180.74" transform="translate(38.455669, 182.356404) rotate(22.000000) translate(-38.455669, -182.356404)"/><polygon id="Fill-374" fill="#A3B1BF" fill-opacity=".8" points="35.388 178.938 37.004 180.554 38.62 178.938 37.004 177.322" transform="translate(37.004016, 178.937602) rotate(22.000000) translate(-37.004016, -178.937602)"/><polygon id="Stroke-376" points="35.388 178.938 37.004 180.554 38.62 178.938 37.004 177.322" transform="translate(37.004016, 178.937602) rotate(22.000000) translate(-37.004016, -178.937602)"/><polygon id="Fill-378" fill="#A3B1BF" fill-opacity=".8" points="44.765 165.932 46.381 167.548 47.997 165.932 46.381 164.316" transform="translate(46.380894, 165.931897) rotate(22.000000) translate(-46.380894, -165.931897)"/><polygon id="Stroke-380" points="44.765 165.932 46.381 167.548 47.997 165.932 46.381 164.316" transform="translate(46.380894, 165.931897) rotate(22.000000) translate(-46.380894, -165.931897)"/><polygon id="Fill-382" fill="#A3B1BF" fill-opacity=".8" points="43.313 162.513 44.929 164.129 46.546 162.513 44.929 160.897" transform="translate(44.929324, 162.513061) rotate(22.000000) translate(-44.929324, -162.513061)"/><polygon id="Stroke-384" points="43.313 162.513 44.929 164.129 46.546 162.513 44.929 160.897" transform="translate(44.929324, 162.513061) rotate(22.000000) translate(-44.929324, -162.513061)"/><polygon id="Fill-386" fill="#A3B1BF" fill-opacity=".8" points="41.861 159.094 43.478 160.71 45.094 159.094 43.478 157.478" transform="translate(43.477729, 159.094284) rotate(22.000000) translate(-43.477729, -159.094284)"/><polygon id="Stroke-388" points="41.861 159.094 43.478 160.71 45.094 159.094 43.478 157.478" transform="translate(43.477729, 159.094284) rotate(22.000000) translate(-43.477729, -159.094284)"/><polygon id="Fill-390" fill="#A3B1BF" fill-opacity=".8" points="40.41 155.675 42.026 157.291 43.642 155.675 42.026 154.06" transform="translate(42.026100, 155.675424) rotate(22.000000) translate(-42.026100, -155.675424)"/><polygon id="Stroke-392" points="40.41 155.675 42.026 157.291 43.642 155.675 42.026 154.06" transform="translate(42.026100, 155.675424) rotate(22.000000) translate(-42.026100, -155.675424)"/><polygon id="Fill-394" fill="#A3B1BF" fill-opacity=".8" points="41.609 167.271 43.225 168.887 44.841 167.271 43.225 165.655" transform="translate(43.224809, 167.271198) rotate(22.000000) translate(-43.224809, -167.271198)"/><polygon id="Stroke-396" points="41.609 167.271 43.225 168.887 44.841 167.271 43.225 165.655" transform="translate(43.224809, 167.271198) rotate(22.000000) translate(-43.224809, -167.271198)"/><polygon id="Fill-398" fill="#A3B1BF" fill-opacity=".8" points="40.157 163.852 41.773 165.468 43.389 163.852 41.773 162.236" transform="translate(41.773238, 163.852362) rotate(22.000000) translate(-41.773238, -163.852362)"/><polygon id="Stroke-400" points="40.157 163.852 41.773 165.468 43.389 163.852 41.773 162.236" transform="translate(41.773238, 163.852362) rotate(22.000000) translate(-41.773238, -163.852362)"/><polygon id="Fill-402" fill="#A3B1BF" fill-opacity=".8" points="38.705 160.434 40.322 162.049 41.938 160.434 40.322 158.818" transform="translate(40.321585, 160.433561) rotate(22.000000) translate(-40.321585, -160.433561)"/><polygon id="Stroke-404" points="38.705 160.434 40.322 162.049 41.938 160.434 40.322 158.818" transform="translate(40.321585, 160.433561) rotate(22.000000) translate(-40.321585, -160.433561)"/><polygon id="Fill-406" fill="#A3B1BF" fill-opacity=".8" points="37.254 157.015 38.87 158.631 40.486 157.015 38.87 155.399" transform="translate(38.869991, 157.014784) rotate(22.000000) translate(-38.869991, -157.014784)"/><polygon id="Stroke-408" points="37.254 157.015 38.87 158.631 40.486 157.015 38.87 155.399" transform="translate(38.869991, 157.014784) rotate(22.000000) translate(-38.869991, -157.014784)"/><polygon id="Fill-410" fill="#A3B1BF" fill-opacity=".8" points="38.452 168.61 40.069 170.226 41.685 168.61 40.069 166.995" transform="translate(40.068723, 168.610499) rotate(22.000000) translate(-40.068723, -168.610499)"/><polygon id="Stroke-412" points="38.452 168.61 40.069 170.226 41.685 168.61 40.069 166.995" transform="translate(40.068723, 168.610499) rotate(22.000000) translate(-40.068723, -168.610499)"/><polygon id="Fill-414" fill="#A3B1BF" fill-opacity=".8" points="37.001 165.192 38.617 166.808 40.233 165.192 38.617 163.576" transform="translate(38.617129, 165.191722) rotate(22.000000) translate(-38.617129, -165.191722)"/><polygon id="Stroke-416" points="37.001 165.192 38.617 166.808 40.233 165.192 38.617 163.576" transform="translate(38.617129, 165.191722) rotate(22.000000) translate(-38.617129, -165.191722)"/><polygon id="Fill-418" fill="#A3B1BF" fill-opacity=".8" points="35.549 161.773 37.165 163.389 38.782 161.773 37.165 160.157" transform="translate(37.165500, 161.772862) rotate(22.000000) translate(-37.165500, -161.772862)"/><polygon id="Stroke-420" points="35.549 161.773 37.165 163.389 38.782 161.773 37.165 160.157" transform="translate(37.165500, 161.772862) rotate(22.000000) translate(-37.165500, -161.772862)"/><polygon id="Fill-422" fill="#A3B1BF" fill-opacity=".8" points="34.098 158.354 35.714 159.97 37.33 158.354 35.714 156.738" transform="translate(35.713906, 158.354085) rotate(22.000000) translate(-35.713906, -158.354085)"/><polygon id="Stroke-424" points="34.098 158.354 35.714 159.97 37.33 158.354 35.714 156.738" transform="translate(35.713906, 158.354085) rotate(22.000000) translate(-35.713906, -158.354085)"/><polygon id="Fill-426" fill="#A3B1BF" fill-opacity=".8" points="35.296 169.95 36.913 171.566 38.529 169.95 36.913 168.334" transform="translate(36.912638, 169.949800) rotate(22.000000) translate(-36.912638, -169.949800)"/><polygon id="Stroke-428" points="35.296 169.95 36.913 171.566 38.529 169.95 36.913 168.334" transform="translate(36.912638, 169.949800) rotate(22.000000) translate(-36.912638, -169.949800)"/><polygon id="Fill-430" fill="#A3B1BF" fill-opacity=".8" points="33.845 166.531 35.461 168.147 37.077 166.531 35.461 164.915" transform="translate(35.461068, 166.530964) rotate(22.000000) translate(-35.461068, -166.530964)"/><polygon id="Stroke-432" points="33.845 166.531 35.461 168.147 37.077 166.531 35.461 164.915" transform="translate(35.461068, 166.530964) rotate(22.000000) translate(-35.461068, -166.530964)"/><polygon id="Fill-434" fill="#A3B1BF" fill-opacity=".8" points="32.393 163.112 34.009 164.728 35.626 163.112 34.009 161.496" transform="translate(34.009415, 163.112163) rotate(22.000000) translate(-34.009415, -163.112163)"/><polygon id="Stroke-436" points="32.393 163.112 34.009 164.728 35.626 163.112 34.009 161.496" transform="translate(34.009415, 163.112163) rotate(22.000000) translate(-34.009415, -163.112163)"/><polygon id="Fill-438" fill="#A3B1BF" fill-opacity=".8" points="30.942 159.693 32.558 161.309 34.174 159.693 32.558 158.077" transform="translate(32.557820, 159.693385) rotate(22.000000) translate(-32.557820, -159.693385)"/><polygon id="Stroke-440" points="30.942 159.693 32.558 161.309 34.174 159.693 32.558 158.077" transform="translate(32.557820, 159.693385) rotate(22.000000) translate(-32.557820, -159.693385)"/><polygon id="Fill-442" fill="#A3B1BF" fill-opacity=".8" points="32.14 171.289 33.757 172.905 35.373 171.289 33.757 169.673" transform="translate(33.756553, 171.289101) rotate(22.000000) translate(-33.756553, -171.289101)"/><polygon id="Stroke-444" points="32.14 171.289 33.757 172.905 35.373 171.289 33.757 169.673" transform="translate(33.756553, 171.289101) rotate(22.000000) translate(-33.756553, -171.289101)"/><polygon id="Fill-446" fill="#A3B1BF" fill-opacity=".8" points="30.689 167.87 32.305 169.486 33.921 167.87 32.305 166.254" transform="translate(32.304959, 167.870324) rotate(22.000000) translate(-32.304959, -167.870324)"/><polygon id="Stroke-448" points="30.689 167.87 32.305 169.486 33.921 167.87 32.305 166.254" transform="translate(32.304959, 167.870324) rotate(22.000000) translate(-32.304959, -167.870324)"/><polygon id="Fill-450" fill="#A3B1BF" fill-opacity=".8" points="29.237 164.451 30.853 166.067 32.47 164.451 30.853 162.836" transform="translate(30.853329, 164.451464) rotate(22.000000) translate(-30.853329, -164.451464)"/><polygon id="Stroke-452" points="29.237 164.451 30.853 166.067 32.47 164.451 30.853 162.836" transform="translate(30.853329, 164.451464) rotate(22.000000) translate(-30.853329, -164.451464)"/><polygon id="Fill-454" fill="#A3B1BF" fill-opacity=".8" points="27.785 161.033 29.402 162.649 31.018 161.033 29.402 159.417" transform="translate(29.401735, 161.032686) rotate(22.000000) translate(-29.401735, -161.032686)"/><polygon id="Stroke-456" points="27.785 161.033 29.402 162.649 31.018 161.033 29.402 159.417" transform="translate(29.401735, 161.032686) rotate(22.000000) translate(-29.401735, -161.032686)"/><polygon id="Fill-458" fill="#A3B1BF" fill-opacity=".8" points="37.162 148.027 38.779 149.643 40.395 148.027 38.779 146.411" transform="translate(38.778613, 148.026981) rotate(22.000000) translate(-38.778613, -148.026981)"/><polygon id="Stroke-460" points="37.162 148.027 38.779 149.643 40.395 148.027 38.779 146.411" transform="translate(38.778613, 148.026981) rotate(22.000000) translate(-38.778613, -148.026981)"/><polygon id="Fill-462" fill="#A3B1BF" fill-opacity=".8" points="35.711 144.608 37.327 146.224 38.943 144.608 37.327 142.992" transform="translate(37.326984, 144.608121) rotate(22.000000) translate(-37.326984, -144.608121)"/><polygon id="Stroke-464" points="35.711 144.608 37.327 146.224 38.943 144.608 37.327 142.992" transform="translate(37.326984, 144.608121) rotate(22.000000) translate(-37.326984, -144.608121)"/><polygon id="Fill-466" fill="#A3B1BF" fill-opacity=".8" points="34.259 141.189 35.875 142.805 37.492 141.189 35.875 139.573" transform="translate(35.875390, 141.189344) rotate(22.000000) translate(-35.875390, -141.189344)"/><polygon id="Stroke-468" points="34.259 141.189 35.875 142.805 37.492 141.189 35.875 139.573" transform="translate(35.875390, 141.189344) rotate(22.000000) translate(-35.875390, -141.189344)"/><polygon id="Fill-470" fill="#A3B1BF" fill-opacity=".8" points="32.808 137.771 34.424 139.386 36.04 137.771 34.424 136.155" transform="translate(34.423796, 137.770567) rotate(22.000000) translate(-34.423796, -137.770567)"/><polygon id="Stroke-472" fill="#B2BECA" points="34.424 139.386 36.04 137.771 34.424 136.155 32.808 137.771" transform="translate(34.423796, 137.770567) rotate(22.000000) translate(-34.423796, -137.770567)"/><polygon id="Fill-474" fill="#A3B1BF" fill-opacity=".8" points="34.006 149.366 35.623 150.982 37.239 149.366 35.623 147.75" transform="translate(35.622528, 149.366282) rotate(22.000000) translate(-35.622528, -149.366282)"/><polygon id="Stroke-476" points="34.006 149.366 35.623 150.982 37.239 149.366 35.623 147.75" transform="translate(35.622528, 149.366282) rotate(22.000000) translate(-35.622528, -149.366282)"/><polygon id="Fill-478" fill="#A3B1BF" fill-opacity=".8" points="32.555 145.947 34.171 147.563 35.787 145.947 34.171 144.332" transform="translate(34.170875, 145.947481) rotate(22.000000) translate(-34.170875, -145.947481)"/><polygon id="Stroke-480" points="32.555 145.947 34.171 147.563 35.787 145.947 34.171 144.332" transform="translate(34.170875, 145.947481) rotate(22.000000) translate(-34.170875, -145.947481)"/><polygon id="Fill-482" fill="#A3B1BF" fill-opacity=".8" points="31.103 142.529 32.719 144.145 34.336 142.529 32.719 140.913" transform="translate(32.719305, 142.528645) rotate(22.000000) translate(-32.719305, -142.528645)"/><polygon id="Stroke-484" points="31.103 142.529 32.719 144.145 34.336 142.529 32.719 140.913" transform="translate(32.719305, 142.528645) rotate(22.000000) translate(-32.719305, -142.528645)"/><polygon id="Fill-486" fill="#A3B1BF" fill-opacity=".8" points="29.651 139.11 31.268 140.726 32.884 139.11 31.268 137.494" transform="translate(31.267651, 139.109844) rotate(22.000000) translate(-31.267651, -139.109844)"/><polygon id="Stroke-488" points="29.651 139.11 31.268 140.726 32.884 139.11 31.268 137.494" transform="translate(31.267651, 139.109844) rotate(22.000000) translate(-31.267651, -139.109844)"/><polygon id="Fill-490" fill="#A3B1BF" fill-opacity=".8" points="30.85 150.706 32.466 152.321 34.083 150.706 32.466 149.09" transform="translate(32.466384, 150.705559) rotate(22.000000) translate(-32.466384, -150.705559)"/><polygon id="Stroke-492" points="30.85 150.706 32.466 152.321 34.083 150.706 32.466 149.09" transform="translate(32.466384, 150.705559) rotate(22.000000) translate(-32.466384, -150.705559)"/><polygon id="Fill-494" fill="#A3B1BF" fill-opacity=".8" points="29.399 147.287 31.015 148.903 32.631 147.287 31.015 145.671" transform="translate(31.014790, 147.286782) rotate(22.000000) translate(-31.014790, -147.286782)"/><polygon id="Stroke-496" points="29.399 147.287 31.015 148.903 32.631 147.287 31.015 145.671" transform="translate(31.014790, 147.286782) rotate(22.000000) translate(-31.014790, -147.286782)"/><polygon id="Fill-498" fill="#A3B1BF" fill-opacity=".8" points="27.947 143.868 29.563 145.484 31.179 143.868 29.563 142.252" transform="translate(29.563219, 143.867946) rotate(22.000000) translate(-29.563219, -143.867946)"/><polygon id="Stroke-500" points="27.947 143.868 29.563 145.484 31.179 143.868 29.563 142.252" transform="translate(29.563219, 143.867946) rotate(22.000000) translate(-29.563219, -143.867946)"/><polygon id="Fill-502" fill="#A3B1BF" fill-opacity=".8" points="26.495 140.449 28.112 142.065 29.728 140.449 28.112 138.833" transform="translate(28.111566, 140.449145) rotate(22.000000) translate(-28.111566, -140.449145)"/><polygon id="Stroke-504" points="26.495 140.449 28.112 142.065 29.728 140.449 28.112 138.833" transform="translate(28.111566, 140.449145) rotate(22.000000) translate(-28.111566, -140.449145)"/><polygon id="Fill-506" fill="#A3B1BF" fill-opacity=".8" points="27.694 152.045 29.31 153.661 30.927 152.045 29.31 150.429" transform="translate(29.310298, 152.044860) rotate(22.000000) translate(-29.310298, -152.044860)"/><polygon id="Stroke-508" points="27.694 152.045 29.31 153.661 30.927 152.045 29.31 150.429" transform="translate(29.310298, 152.044860) rotate(22.000000) translate(-29.310298, -152.044860)"/><polygon id="Fill-510" fill="#A3B1BF" fill-opacity=".8" points="26.242 148.626 27.859 150.242 29.475 148.626 27.859 147.01" transform="translate(27.858704, 148.626083) rotate(22.000000) translate(-27.858704, -148.626083)"/><polygon id="Stroke-512" points="26.242 148.626 27.859 150.242 29.475 148.626 27.859 147.01" transform="translate(27.858704, 148.626083) rotate(22.000000) translate(-27.858704, -148.626083)"/><polygon id="Fill-514" fill="#A3B1BF" fill-opacity=".8" points="24.791 145.207 26.407 146.823 28.023 145.207 26.407 143.591" transform="translate(26.407134, 145.207247) rotate(22.000000) translate(-26.407134, -145.207247)"/><polygon id="Stroke-516" points="24.791 145.207 26.407 146.823 28.023 145.207 26.407 143.591" transform="translate(26.407134, 145.207247) rotate(22.000000) translate(-26.407134, -145.207247)"/><polygon id="Fill-518" fill="#A3B1BF" fill-opacity=".8" points="23.339 141.788 24.955 143.404 26.572 141.788 24.955 140.173" transform="translate(24.955481, 141.788446) rotate(22.000000) translate(-24.955481, -141.788446)"/><polygon id="Stroke-520" points="23.339 141.788 24.955 143.404 26.572 141.788 24.955 140.173" transform="translate(24.955481, 141.788446) rotate(22.000000) translate(-24.955481, -141.788446)"/><polygon id="Fill-522" fill="#A3B1BF" fill-opacity=".8" points="24.538 153.384 26.154 155 27.77 153.384 26.154 151.768" transform="translate(26.154213, 153.384161) rotate(22.000000) translate(-26.154213, -153.384161)"/><polygon id="Stroke-524" points="24.538 153.384 26.154 155 27.77 153.384 26.154 151.768" transform="translate(26.154213, 153.384161) rotate(22.000000) translate(-26.154213, -153.384161)"/><polygon id="Fill-526" fill="#A3B1BF" fill-opacity=".8" points="23.086 149.965 24.703 151.581 26.319 149.965 24.703 148.349" transform="translate(24.702619, 149.965384) rotate(22.000000) translate(-24.702619, -149.965384)"/><polygon id="Stroke-528" points="23.086 149.965 24.703 151.581 26.319 149.965 24.703 148.349" transform="translate(24.702619, 149.965384) rotate(22.000000) translate(-24.702619, -149.965384)"/><polygon id="Fill-530" fill="#A3B1BF" fill-opacity=".8" points="21.635 146.547 23.251 148.163 24.867 146.547 23.251 144.931" transform="translate(23.250966, 146.546583) rotate(22.000000) translate(-23.250966, -146.546583)"/><polygon id="Stroke-532" points="21.635 146.547 23.251 148.163 24.867 146.547 23.251 144.931" transform="translate(23.250966, 146.546583) rotate(22.000000) translate(-23.250966, -146.546583)"/><polygon id="Fill-534" fill="#A3B1BF" fill-opacity=".8" points="20.183 143.128 21.799 144.744 23.416 143.128 21.799 141.512" transform="translate(21.799396, 143.127747) rotate(22.000000) translate(-21.799396, -143.127747)"/><polygon id="Stroke-536" points="20.183 143.128 21.799 144.744 23.416 143.128 21.799 141.512" transform="translate(21.799396, 143.127747) rotate(22.000000) translate(-21.799396, -143.127747)"/><path id="Fill-538" fill="#F5F5F5" d="M129.314819,189.942425 C126.372666,187.000233 124.490222,184.112668 125.110927,183.492089 C125.731631,182.87151 128.619783,184.753573 131.562571,187.695129 C134.504724,190.637321 136.387169,193.524886 135.766464,194.145465 C135.145759,194.766044 132.257608,192.883981 129.314819,189.942425 Z" transform="translate(130.438695, 188.818777) rotate(22.000000) translate(-130.438695, -188.818777)"/><path id="Stroke-540" stroke="#A3B1BF" stroke-linejoin="round" stroke-width="1.62" d="M129.314819,189.942425 C126.372666,187.000233 124.490222,184.112668 125.110927,183.492089 C125.731631,182.87151 128.619783,184.753573 131.562571,187.695129 C134.504724,190.637321 136.387169,193.524886 135.766464,194.145465 C135.145759,194.766044 132.257608,192.883981 129.314819,189.942425 Z" transform="translate(130.438695, 188.818777) rotate(22.000000) translate(-130.438695, -188.818777)"/><path id="Fill-542" fill="#F5F5F5" d="M136.083433,187.715086 C130.20421,181.837055 126.443133,176.067006 127.683272,174.827118 C128.92341,173.587231 134.69463,177.347545 140.573854,183.225576 C146.453713,189.104243 150.21479,194.874292 148.974651,196.114179 C147.734513,197.354066 141.963293,193.593752 136.083433,187.715086 Z" transform="translate(138.328961, 185.470648) rotate(22.000000) translate(-138.328961, -185.470648)"/><path id="Stroke-544" stroke="#A3B1BF" stroke-linejoin="round" stroke-width="1.62" d="M136.083433,187.715086 C130.20421,181.837055 126.443133,176.067006 127.683272,174.827118 C128.92341,173.587231 134.69463,177.347545 140.573854,183.225576 C146.453713,189.104243 150.21479,194.874292 148.974651,196.114179 C147.734513,197.354066 141.963293,193.593752 136.083433,187.715086 Z" transform="translate(138.328961, 185.470648) rotate(22.000000) translate(-138.328961, -185.470648)"/><path id="Fill-546" fill="#F5F5F5" fill-opacity=".35" d="M146.697288,183.650834 C138.818086,175.773231 133.777481,168.04045 135.43947,166.378798 C137.101459,164.717146 144.835809,169.756729 152.715011,177.634332 C160.594213,185.511936 165.634818,193.244716 163.972829,194.906369 C162.310839,196.568021 154.57649,191.528438 146.697288,183.650834 Z" transform="translate(149.706149, 180.642583) rotate(22.000000) translate(-149.706149, -180.642583)"/><path id="Stroke-548" stroke="#A3B1BF" stroke-linejoin="round" stroke-width="1.62" d="M146.697288,183.650834 C138.818086,175.773231 133.777481,168.04045 135.43947,166.378798 C137.101459,164.717146 144.835809,169.756729 152.715011,177.634332 C160.594213,185.511936 165.634818,193.244716 163.972829,194.906369 C162.310839,196.568021 154.57649,191.528438 146.697288,183.650834 Z" transform="translate(149.706149, 180.642583) rotate(22.000000) translate(-149.706149, -180.642583)"/><path id="Oval-80-Copy-3" fill="#A3B1BF" fill-opacity=".4" d="M65.2279553,90.2345285 C62.4548336,90.0320836 60.4105231,89.3345405 60.4105231,88.5051511 C60.4105231,87.676673 62.4503446,86.9797514 65.2188187,86.7764428 C65.4149139,84.0068366 66.0879499,81.9659221 66.8880741,81.9659221 C67.6881984,81.9659221 68.3612344,84.0068366 68.5573295,86.7764428 C71.3258036,86.9797514 73.3656251,87.676673 73.3656251,88.5051511 C73.3656251,89.3345405 71.3213146,90.0320836 68.548193,90.2345285 C68.3410329,92.9408238 67.6762073,94.9210242 66.8880741,94.9210242 C66.0999409,94.9210242 65.4351154,92.9408238 65.2279553,90.2345285 Z" opacity=".85" transform="translate(66.888074, 88.443473) rotate(-340.000000) translate(-66.888074, -88.443473)"/><path id="Star-1-Copy-16" fill="#A3B1BF" fill-opacity=".4" d="M118.775569,329.140492 L118.424988,329.526146 C117.522244,330.5192 115.985396,330.592411 114.992341,329.689667 C114.596934,329.330218 114.331035,328.850456 114.235803,328.324641 L114.143075,327.812647 L113.669257,327.599091 C112.445737,327.047635 111.900921,325.608734 112.452377,324.385214 C112.672015,323.8979 113.046204,323.496601 113.516991,323.243469 L113.97521,322.997095 L114.032158,322.478985 C114.178786,321.144967 115.379087,320.182398 116.713105,320.329026 C117.24418,320.387399 117.741214,320.61917 118.127299,320.988476 L118.503957,321.348765 L119.01334,321.242962 C120.327346,320.970031 121.613813,321.813989 121.886744,323.127995 C121.995449,323.651349 121.928561,324.195943 121.696437,324.677436 L121.470742,325.145594 L121.728812,325.597409 C122.394441,326.762759 121.989337,328.247061 120.823987,328.91269 C120.359975,329.177726 119.82154,329.282421 119.292023,329.21057 L118.775569,329.140492 Z"/><path id="Star-1-Copy-18" fill="#A3B1BF" fill-opacity=".4" d="M432.83752,120.004816 L432.837087,120.005044 L432.837087,120.005044 C432.092472,120.396429 431.171561,120.110079 430.780176,119.365464 C430.624337,119.068978 430.570573,118.729391 430.627206,118.399266 L430.627206,118.399266 L430.627206,118.399266 L430.627206,118.399266 C430.024845,117.812233 430.01242,116.848039 430.599453,116.245678 C430.833262,116.005765 431.139652,115.849637 431.471171,115.801474 L431.471471,115.801431 L431.471471,115.801431 L431.471471,115.801431 C431.843891,115.046982 432.757399,114.737288 433.511848,115.109709 C433.812195,115.25797 434.055308,115.501083 434.20357,115.801431 L434.20357,115.801431 L434.203869,115.801474 L434.203869,115.801474 C435.036229,115.922398 435.612963,116.695187 435.492039,117.527547 C435.443876,117.859067 435.287748,118.165457 435.047835,118.399266 L435.047835,118.399266 L435.047835,118.399266 L435.047835,118.399266 C435.190066,119.228364 434.63325,120.015783 433.804152,120.158014 C433.474027,120.214647 433.134439,120.160883 432.837954,120.005044 L432.83752,120.004816 Z" transform="translate(432.837619, 117.566125) rotate(-3.000000) translate(-432.837619, -117.566125)"/><path id="Star-1-Copy-19" fill="#A3B1BF" fill-opacity=".4" d="M99.7727703,38.762372 L99.0266308,39.1545584 L99.0266308,39.1545584 C97.8386845,39.7789675 96.36948,39.3221304 95.7450708,38.134184 C95.4964477,37.6611755 95.4106732,37.1194035 95.5010241,36.5927278 L95.6433921,35.7628333 L95.0407812,35.1755563 L95.0407812,35.1755563 C94.0796578,34.2388893 94.059832,32.7004261 94.996499,31.7393027 C95.369563,31.3564979 95.8584376,31.1073808 96.3874089,31.0305329 L97.2206742,30.9094778 L97.5937913,30.1536188 L97.5937913,30.1536188 C98.1878378,28.950202 99.6449697,28.4562097 100.848387,29.0502562 C101.327469,29.2867472 101.715258,29.6745363 101.951749,30.1536188 L102.324866,30.9094778 L103.158132,31.0305329 L103.158132,31.0305329 C104.486241,31.223478 105.406474,32.4565366 105.213529,33.7846464 C105.136681,34.3136177 104.887564,34.8024923 104.504759,35.1755563 L103.902148,35.7628333 L104.044516,36.5927278 L104.044516,36.5927278 C104.27143,37.9154575 103.383095,39.1716915 102.060366,39.398605 C101.53369,39.4889559 100.991918,39.4031814 100.51891,39.1545584 L99.7727703,38.762372 Z" transform="translate(99.772928, 34.116388) rotate(19.000000) translate(-99.772928, -34.116388)"/><path id="Star-1-Copy-20" fill="#A3B1BF" fill-opacity=".4" d="M396.631073,305.744172 L396.098125,305.608596 C394.797498,305.277731 394.01135,303.955146 394.342215,302.654518 C394.473956,302.136643 394.772729,301.676633 395.192288,301.345694 L395.623376,301.00566 L395.587617,300.458372 C395.500116,299.119176 396.514815,297.962609 397.854012,297.875108 C398.387399,297.840257 398.917395,297.982247 399.361919,298.279089 L399.818473,298.583965 L400.329362,298.380373 C401.576068,297.883555 402.989473,298.491459 403.486291,299.738164 C403.684076,300.23448 403.712777,300.782145 403.567956,301.296416 L403.418882,301.825788 L403.76981,302.247972 C404.627682,303.280038 404.486471,304.812135 403.454406,305.670007 C403.043346,306.011688 402.531095,306.208301 401.996987,306.229395 L401.44896,306.251039 L401.15585,306.715309 C400.439401,307.850123 398.938655,308.189275 397.80384,307.472826 C397.351988,307.187555 397.006767,306.761296 396.821614,306.260029 L396.631073,305.744172 Z"/><path id="Star-1-Copy-21" fill="#A3B1BF" fill-opacity=".4" d="M439.755536,146.347757 L439.755103,146.347984 L439.755103,146.347984 C439.010488,146.739369 438.089577,146.45302 437.698192,145.708405 C437.542353,145.411919 437.488589,145.072331 437.545222,144.742206 L437.545222,144.742206 L437.545222,144.742206 L437.545222,144.742206 C436.942861,144.155173 436.930436,143.190979 437.517469,142.588619 C437.751277,142.348705 438.057668,142.192577 438.389187,142.144415 L438.389487,142.144371 L438.389487,142.144371 L438.389487,142.144371 C438.761907,141.389923 439.675415,141.080228 440.429864,141.452649 C440.730211,141.600911 440.973324,141.844024 441.121586,142.144371 L441.121586,142.144371 L441.121885,142.144415 L441.121885,142.144415 C441.954245,142.265338 442.530978,143.038128 442.410055,143.870488 C442.361892,144.202007 442.205764,144.508398 441.965851,144.742206 L441.965851,144.742206 L441.965851,144.742206 L441.965851,144.742206 C442.108082,145.571305 441.551266,146.358723 440.722168,146.500955 C440.392043,146.557588 440.052455,146.503823 439.755969,146.347984 L439.755536,146.347757 Z" transform="translate(439.755635, 143.909066) rotate(-12.000000) translate(-439.755635, -143.909066)"/><path id="Oval-8-Copy-2" fill="#A3B1BF" fill-opacity=".66" d="M244.621971,220.61341 C277.15945,220.61341 303.536288,194.242112 303.536288,161.711467 C303.536288,129.180822 277.15945,102.809524 244.621971,102.809524 C212.084491,102.809524 185.707653,129.180822 185.707653,161.711467 C185.707653,194.242112 212.084491,220.61341 244.621971,220.61341 Z"/><path id="" fill="#FFF" d="M245.345696,141.060063 C241.146656,141.060063 237.880736,142.342349 235.547936,144.906921 C233.215136,147.354921 232.107056,150.618921 232.107056,154.698921 L236.714336,154.698921 C236.714336,151.842921 237.355856,149.628063 238.638896,147.996063 C240.038576,146.072635 242.196416,145.140063 245.112416,145.140063 C247.561856,145.140063 249.486416,145.781206 250.827776,147.180063 C252.110816,148.462349 252.810656,150.269206 252.810656,152.600635 C252.810656,154.232635 252.227456,155.748063 251.061056,157.205206 C250.711136,157.671492 250.011296,158.370921 249.078176,159.303492 C245.928896,162.101206 244.004336,164.316063 243.187856,166.064635 C242.488016,167.521778 242.138096,169.212063 242.138096,171.135492 L242.138096,172.476063 L246.803696,172.476063 L246.803696,171.135492 C246.803696,169.561778 247.153616,168.162921 247.911776,166.880635 C248.494976,165.831492 249.369776,164.782349 250.652816,163.674921 C253.218896,161.401778 254.793536,159.886349 255.376736,159.186921 C256.834736,157.263492 257.592896,154.990349 257.592896,152.367492 C257.592896,148.870349 256.484816,146.130921 254.326976,144.149206 C252.052496,142.050921 249.078176,141.060063 245.345696,141.060063 Z M244.470896,176.556063 C243.479456,176.556063 242.662976,176.847492 241.963136,177.546921 C241.263296,178.188063 240.971696,179.004063 240.971696,179.994921 C240.971696,180.985778 241.263296,181.801778 241.963136,182.501206 C242.662976,183.142349 243.479456,183.492063 244.470896,183.492063 C245.462336,183.492063 246.278816,183.142349 246.978656,182.501206 C247.678496,181.860063 248.028416,181.044063 248.028416,179.994921 C248.028416,179.004063 247.678496,178.188063 247.036976,177.546921 C246.337136,176.847492 245.462336,176.556063 244.470896,176.556063 Z"/><path id="Oval-8-Copy-2" fill="#FAFAFA" d="M223.261662,133.139924 C229.077338,129.782947 239.631808,125.828273 236.274126,120.013819 C232.916444,114.199364 220.565868,115.043746 214.750193,118.400722 C208.934517,121.757699 202.729834,131.623951 206.087516,137.438405 C209.445198,143.252859 217.445986,136.4969 223.261662,133.139924"/><path id="Oval-10-Copy" fill="#FAFAFA" d="M249.679003,119.820589 C252.365149,119.820589 254.5427,117.643495 254.5427,114.957913 C254.5427,112.272332 252.365149,110.095238 249.679003,110.095238 C246.992857,110.095238 244.815306,112.272332 244.815306,114.957913 C244.815306,117.643495 246.992857,119.820589 249.679003,119.820589 Z"/><path id="Line-2" stroke="#979797" stroke-linecap="square" d="M421.5,321.5 L423,323"/></g></g></g></svg>